<mxfile host="app.diagrams.net" modified="2024-05-11T13:17:53.992Z" agent="Mozilla/5.0 (Windows NT 10.0; Win64; x64) AppleWebKit/537.36 (KHTML, like Gecko) Chrome/124.0.0.0 Safari/537.36" version="24.4.0" etag="Eag_na8iIPKFvRc01Nu2" type="github">
  <diagram name="Page-1" id="QpiWNOtHf6C9qXmkVL9T">
    <mxGraphModel>
      <root>
        <mxCell id="0" />
        <mxCell id="1" parent="0" />
      </root>
    </mxGraphModel>
  </diagram>
</mxfile>
